<?xml version="1.0" encoding="utf-8"?>
<!-- Generator: Adobe Illustrator 25.0.1, SVG Export Plug-In . SVG Version: 6.00 Build 0)  -->
<svg version="1.1" id="layer_1" xmlns="http://www.w3.org/2000/svg" xmlns:xlink="http://www.w3.org/1999/xlink" x="0px" y="0px"
	 viewBox="0 0 121.4 121.3" style="enable-background:new 0 0 121.4 121.3;" xml:space="preserve">
<style type="text/css">
	.st0{fill:#FD9500;}
</style>
<g>
	<g>
		<path class="st0" d="M42.6,45.7c0,7.4,4.5,13.8,11,16.6c-14.4,2.6-26.2,12.9-30.9,26.4l33.7,19.4c2.6,1.5,5.7,1.5,8.3,0l34-19.6
			C93.9,75,82.1,64.8,67.7,62.3c6.4-2.8,10.9-9.1,10.9-16.6c0-9.7-7.6-17.5-17.1-18c-0.3,0-0.6,0-0.9,0c-0.3,0-0.6,0-0.9,0
			C50.2,28.2,42.6,36,42.6,45.7z"/>
	</g>
	<g>
		<path class="st0" d="M60.6,6c2.2,0,4.4,0.6,6.3,1.7L103.9,29c3.9,2.3,6.3,6.5,6.3,11v41.4c0,4.5-2.4,8.7-6.3,11L67,113.6
			c-1.9,1.1-4.1,1.7-6.3,1.7c-2.2,0-4.4-0.6-6.3-1.7L17.4,92.3c-3.9-2.3-6.3-6.5-6.3-11V40c0-4.5,2.4-8.7,6.3-11L54.3,7.7
			C56.2,6.6,58.4,6,60.6,6 M60.6,0.7c-3.1,0-6.2,0.8-9,2.4L14.7,24.4c-5.6,3.2-9,9.2-9,15.6v41.4c0,6.4,3.4,12.4,9,15.6l36.9,21.3
			c2.8,1.6,5.9,2.4,9,2.4c3.1,0,6.2-0.8,9-2.4l36.9-21.3c5.6-3.2,9-9.2,9-15.6V40c0-6.4-3.4-12.4-9-15.6L69.6,3.1
			C66.9,1.5,63.8,0.7,60.6,0.7L60.6,0.7z"/>
	</g>
</g>
</svg>
