<?xml version="1.0" encoding="utf-8"?>
<!-- Generator: Adobe Illustrator 25.0.1, SVG Export Plug-In . SVG Version: 6.00 Build 0)  -->
<svg version="1.1" id="图层_1" xmlns="http://www.w3.org/2000/svg" xmlns:xlink="http://www.w3.org/1999/xlink" x="0px" y="0px"
	 viewBox="0 0 408 122" style="enable-background:new 0 0 408 122;" xml:space="preserve">
<style type="text/css">
	.st0{display:none;}
	.st1{display:inline;}
	.st2{fill:#12161C;}
	.st3{fill:#F0B90B;}
	.st4{opacity:0.8;fill:#12161C;enable-background:new    ;}
	.st5{fill:#101010;}
</style>
<g id="图层_1_1_" class="st0">
	<g id="bscscan-logo" transform="translate(-219.378 -213.334)" class="st1">
		<g id="bscscan-logo-circle">
			<path id="Path_1" class="st2" d="M245.3,271.5c0-2.8,2.3-5.1,5.1-5.1l0,0h8.6c2.8,0,5.2,2.3,5.2,5.2l0,0V304
				c1-0.3,2.2-0.6,3.6-0.9c1.9-0.5,3.3-2.2,3.3-4.2v-40.2c0-2.8,2.3-5.2,5.2-5.2h8.6c2.8,0,5.2,2.3,5.2,5.2V296c0,0,2.1-0.9,4.2-1.8
				c1.6-0.7,2.6-2.2,2.6-4v-44.5c0-2.8,2.3-5.2,5.1-5.2h8.6c2.8,0,5.1,2.3,5.1,5.2v36.7c7.4-5.4,15-11.9,21-19.7
				c1.8-2.3,2.3-5.3,1.3-8.1c-11-31.6-45.6-48.4-77.2-37.4s-48.4,45.6-37.4,77.2c1.2,3.6,2.8,7,4.7,10.3c1.5,2.6,4.3,4.1,7.3,3.8
				c1.6-0.1,3.6-0.3,6.1-0.6c2.2-0.2,3.8-2.1,3.8-4.3L245.3,271.5"/>
			<path id="Path_2" class="st3" d="M245.1,323.5c27.1,19.7,65,13.7,84.7-13.4c7.5-10.4,11.6-22.9,11.6-35.7c0-1.4-0.1-2.8-0.2-4.2
				C319.1,303.2,278.2,318.8,245.1,323.5"/>
		</g>
		<g id="words">
			<path id="Path_124" class="st4" d="M375.1,315.1h-8.4l-1.5,4.3h-4.5l7.8-20.9h4.8l7.8,20.9h-4.5L375.1,315.1z M374,311.9
				l-3.1-8.9l-3.1,8.9H374z M402.8,302.6c1.3,0,2.6,0.3,3.8,1c1.1,0.7,2.1,1.7,2.6,3c0.7,1.4,1,3,0.9,4.5c0,1.6-0.3,3.1-0.9,4.5
				c-0.6,1.2-1.5,2.2-2.6,3c-1.1,0.7-2.4,1-3.8,1c-1.3,0-2.5-0.3-3.6-1c-1-0.6-1.7-1.6-2.1-2.7v11.4h-4.2v-24.5h4.2v3.4
				c0.4-1.1,1.1-2,2.1-2.7C400.3,302.9,401.6,302.5,402.8,302.6z M401.5,306.2c-1.2,0-2.3,0.4-3.2,1.3c-0.9,1-1.3,2.2-1.2,3.5
				c-0.1,1.3,0.4,2.5,1.2,3.5c0.8,0.9,2,1.3,3.2,1.3c1.2,0.1,2.4-0.4,3.2-1.3c0.8-1,1.3-2.2,1.2-3.5c0.1-1.3-0.4-2.6-1.2-3.5
				S402.7,306.1,401.5,306.2z M418.9,306c0.6-1,1.4-1.9,2.5-2.5c1-0.6,2.2-0.9,3.4-0.9v4.5h-1.2c-3.1,0-4.6,1.4-4.6,4.3v8h-4.3
				v-16.6h4.2V306z M436.3,302.6c1.5,0,3,0.3,4.4,1c1.3,0.7,2.3,1.7,3,3c0.8,1.4,1.1,3,1.1,4.5c0,1.6-0.3,3.1-1.1,4.5
				c-0.7,1.3-1.8,2.3-3,3c-1.3,0.7-2.8,1.1-4.4,1c-1.5,0-3-0.3-4.4-1c-1.3-0.7-2.3-1.7-3-3c-0.8-1.4-1.1-2.9-1.1-4.5
				s0.3-3.2,1.1-4.5c0.7-1.3,1.8-2.3,3-3C433.3,302.9,434.8,302.5,436.3,302.6z M436.3,306.1c-1.1,0-2.2,0.4-3,1.2
				c-0.9,1-1.3,2.3-1.2,3.6c-0.1,1.3,0.4,2.6,1.2,3.6c0.8,0.8,1.9,1.3,3,1.2c1.1,0,2.2-0.4,3-1.2c0.9-1,1.3-2.3,1.2-3.6
				c0.1-1.3-0.4-2.6-1.2-3.6C438.5,306.6,437.4,306.1,436.3,306.1z M455.8,302.6c1.3,0,2.5,0.3,3.6,1c1,0.6,1.7,1.6,2.1,2.7v-9h4.2
				v22.1h-4.2v-3.5c-0.4,1.1-1.2,2-2.1,2.7c-1.1,0.7-2.3,1-3.6,1c-1.3,0-2.6-0.3-3.8-1c-1.1-0.7-2.1-1.7-2.6-3c-0.7-1.4-1-3-0.9-4.5
				c0-1.6,0.3-3.1,0.9-4.5c0.6-1.2,1.5-2.2,2.6-3C453.2,302.9,454.5,302.6,455.8,302.6z M457.2,306.2c-1.2-0.1-2.4,0.4-3.2,1.3
				c-0.8,1-1.3,2.2-1.2,3.5c-0.1,1.3,0.4,2.6,1.2,3.5c0.8,0.9,2,1.3,3.2,1.3s2.3-0.4,3.2-1.3c0.9-1,1.3-2.2,1.2-3.5
				c0.1-1.3-0.4-2.6-1.2-3.5C459.5,306.6,458.4,306.1,457.2,306.2z M487,302.8v16.6h-4.2V316c-0.4,1.1-1.2,2-2.2,2.6
				c-1.1,0.6-2.3,1-3.5,0.9c-1.7,0.1-3.4-0.6-4.6-1.9c-1.2-1.5-1.8-3.4-1.7-5.3v-9.7h4.2v9.2c-0.1,1.1,0.3,2.2,1,3.1
				c0.7,0.7,1.7,1.1,2.8,1.1c1.1,0.1,2.2-0.4,2.9-1.2c0.8-0.9,1.2-2.1,1.1-3.4v-8.8L487,302.8z M499.8,302.6
				c1.9-0.1,3.8,0.5,5.4,1.7c1.4,1.2,2.4,2.9,2.7,4.7h-4.5c-0.1-0.8-0.6-1.6-1.2-2.1c-0.7-0.5-1.6-0.8-2.4-0.8
				c-1.1,0-2.1,0.4-2.8,1.2c-0.8,1-1.2,2.3-1.1,3.6c-0.1,1.3,0.3,2.6,1.1,3.6c0.7,0.8,1.7,1.3,2.8,1.2c0.9,0,1.7-0.2,2.4-0.8
				c0.6-0.5,1.1-1.3,1.2-2.1h4.5c-0.3,1.9-1.2,3.5-2.7,4.7s-3.4,1.8-5.4,1.7c-1.5,0-3-0.3-4.3-1c-1.2-0.7-2.3-1.7-2.9-3
				c-0.7-1.4-1.1-3-1-4.5c0-1.6,0.3-3.1,1-4.5c0.7-1.3,1.7-2.3,2.9-3C496.8,302.9,498.3,302.5,499.8,302.6z M521.2,315.8v3.6H519
				c-1.5,0.1-3.1-0.4-4.3-1.4c-1-0.9-1.5-2.4-1.5-4.5v-7.1h-2.3v-3.6h2.3v-4.1h4.2v4.1h3.7v3.6h-3.7v7.3c-0.1,0.6,0.1,1.2,0.5,1.7
				c0.5,0.4,1,0.5,1.6,0.5h1.7V315.8z M541.5,302.6c1.5,0,3,0.3,4.4,1c1.3,0.7,2.3,1.7,3,3c0.8,1.4,1.1,3,1.1,4.5
				c0,1.6-0.3,3.1-1.1,4.5c-0.7,1.3-1.8,2.3-3,3c-1.3,0.7-2.8,1.1-4.4,1c-1.5,0-3-0.3-4.4-1c-1.3-0.7-2.3-1.7-3-3
				c-0.8-1.4-1.1-2.9-1.1-4.5s0.3-3.2,1.1-4.5c0.7-1.3,1.8-2.3,3-3C538.5,302.9,540,302.5,541.5,302.6z M541.5,306.1
				c-1.1,0-2.2,0.4-3,1.2c-0.9,1-1.3,2.3-1.2,3.6c-0.1,1.3,0.4,2.6,1.2,3.6c0.8,0.8,1.9,1.3,3,1.2c1.1,0,2.2-0.4,3-1.2
				c0.9-1,1.3-2.3,1.2-3.6c0.1-1.3-0.4-2.6-1.2-3.6C543.7,306.6,542.6,306.1,541.5,306.1z M562.7,299.9c-0.9-0.2-1.8,0-2.6,0.5
				c-0.6,0.6-0.8,1.5-0.8,2.3l0,0h3.4v3.6h-3.4v13h-4.2v-13H553v-3.6h2.1v-0.3c-0.1-1.7,0.5-3.4,1.7-4.6c1.4-1.2,3.2-1.7,5-1.6
				c0.4,0,0.7,0,0.9,0V299.9L562.7,299.9z M579.8,302.2v4.4h7.2v3.9h-7.2v4.7h8.1v4.1h-13.2v-21.2h13.2v4.1H579.8z M601.7,315v4.4
				h-2.3c-1.7,0.1-3.3-0.4-4.6-1.5c-1.1-1-1.6-2.6-1.6-4.8v-6.2H591v-4.3h2.2v-4.1h5.1v4.1h3.4v4.3h-3.4v6.2c-0.1,0.5,0.1,1,0.4,1.4
				c0.4,0.3,0.9,0.4,1.4,0.4h1.6V315L601.7,315z M616.7,302.5c1.7-0.1,3.4,0.6,4.6,1.9c1.2,1.5,1.8,3.4,1.7,5.3v9.7h-5.1v-9.1
				c0.1-1-0.3-1.9-0.9-2.6c-0.6-0.6-1.5-1-2.4-0.9c-0.9,0-1.8,0.3-2.5,1c-0.7,0.8-1,1.8-0.9,2.8v8.9h-5.1v-22.2h5.1v8.5
				c0.5-1,1.2-1.8,2.1-2.4C614.4,302.8,615.6,302.5,616.7,302.5z M643.8,310.6c0,0.5-0.1,0.9-0.2,1.4H632c0,1,0.3,2,1,2.7
				c0.6,0.6,1.4,0.9,2.2,0.8c0.7,0,1.3-0.2,1.9-0.6c0.5-0.4,0.8-0.9,1-1.5h5.4c-0.2,1.2-0.7,2.2-1.4,3.2c-0.8,0.9-1.7,1.7-2.8,2.2
				c-1.2,0.5-2.5,0.8-3.8,0.8c-1.5,0-3-0.3-4.4-1c-1.3-0.7-2.3-1.7-3-3c-0.7-1.4-1.1-3-1.1-4.6s0.3-3.2,1.1-4.6c0.7-1.3,1.7-2.3,3-3
				c1.4-0.7,2.9-1.1,4.4-1c1.5,0,3,0.3,4.4,1c1.2,0.7,2.2,1.6,2.9,2.9C643.5,307.6,643.8,309.1,643.8,310.6z M638.6,309.8
				c0.1-0.9-0.2-1.8-0.9-2.5c-0.6-0.6-1.4-0.8-2.3-0.8c-0.9,0-1.7,0.3-2.3,0.8c-0.7,0.6-1,1.5-1,2.5H638.6z M653.1,305.8
				c0.6-1,1.5-1.8,2.5-2.4s2.1-0.9,3.3-0.9v5.5h-1.5c-1.1-0.1-2.2,0.2-3.2,0.9c-0.8,0.7-1.2,1.8-1.1,2.9v7.6H648v-16.7h5.1V305.8z
				 M668.6,302.4c1.8-0.1,3.6,0.5,5.1,1.6c1.3,1.1,2.1,2.6,2.4,4.2h-4.8c-0.1-0.6-0.4-1.2-1-1.6c-0.5-0.4-1.2-0.6-1.8-0.6
				c-0.5,0-0.9,0.1-1.3,0.4c-0.3,0.3-0.5,0.7-0.5,1.1c0,0.5,0.3,1,0.8,1.2c0.8,0.3,1.7,0.6,2.6,0.8c1.1,0.2,2.1,0.5,3.2,0.9
				c0.8,0.3,1.6,0.8,2.1,1.5c0.6,0.8,1,1.8,0.9,2.8c0,0.9-0.3,1.8-0.8,2.5c-0.6,0.8-1.4,1.4-2.2,1.7c-1.1,0.4-2.3,0.7-3.5,0.6
				c-1.9,0.1-3.8-0.4-5.4-1.5c-1.4-1-2.3-2.6-2.5-4.3h5c0,0.7,0.4,1.3,0.9,1.6c0.6,0.4,1.3,0.6,2.1,0.6c0.5,0,0.9-0.1,1.3-0.4
				c0.3-0.3,0.5-0.7,0.5-1.1c0-0.5-0.3-1.1-0.8-1.2c-0.9-0.3-1.8-0.6-2.7-0.8c-1-0.2-2.1-0.5-3.1-0.8c-0.8-0.3-1.5-0.8-2.1-1.5
				c-0.6-0.8-0.9-1.8-0.9-2.7c0-1.4,0.6-2.8,1.7-3.6C665.2,302.8,666.9,302.2,668.6,302.4z M688.2,302.4c2-0.1,3.9,0.6,5.4,1.8
				c1.5,1.2,2.5,3,2.8,4.9H691c-0.1-0.7-0.5-1.3-1-1.7c-0.5-0.4-1.2-0.6-1.9-0.6c-0.9,0-1.7,0.4-2.2,1.1c-0.6,0.9-0.9,2-0.9,3.1
				c-0.1,1.1,0.2,2.2,0.9,3.1c0.5,0.7,1.4,1.1,2.2,1.1c0.7,0,1.3-0.2,1.9-0.6c0.5-0.4,0.9-1,1-1.7h5.4c-0.3,1.9-1.3,3.7-2.8,4.9
				c-1.5,1.2-3.5,1.9-5.4,1.8c-1.5,0-3-0.3-4.4-1c-1.3-0.7-2.3-1.7-3-3c-0.7-1.4-1.1-3-1.1-4.6s0.3-3.2,1.1-4.6c0.7-1.3,1.7-2.3,3-3
				C685.2,302.8,686.7,302.4,688.2,302.4z M706.9,302.4c1.2,0,2.3,0.3,3.3,0.9c0.9,0.6,1.6,1.4,2,2.4v-3h5.1v16.7h-5.1v-3
				c-0.4,1-1.1,1.8-2,2.4c-1,0.6-2.1,0.9-3.3,0.9c-1.3,0-2.6-0.3-3.7-1c-1.1-0.7-2-1.8-2.6-3c-0.7-1.4-1-3-0.9-4.6
				c0-1.6,0.3-3.1,0.9-4.6c0.6-1.2,1.5-2.2,2.6-3C704.3,302.8,705.6,302.4,706.9,302.4z M708.6,306.9c-1,0-2,0.4-2.7,1.1
				c-0.7,0.8-1.1,1.9-1,3c-0.1,1.1,0.3,2.2,1,3c0.7,0.7,1.7,1.1,2.7,1.1s2-0.4,2.7-1.1c0.7-0.8,1.1-1.9,1-3c0.1-1.1-0.3-2.2-1-3
				S709.6,306.9,708.6,306.9z M733,302.5c1.7-0.1,3.4,0.6,4.6,1.9c1.2,1.5,1.8,3.4,1.7,5.3v9.7h-5.1v-9.1c0.1-1-0.3-1.9-0.9-2.6
				c-0.6-0.6-1.5-1-2.4-0.9c-0.9,0-1.8,0.3-2.5,1c-0.7,0.8-1,1.8-0.9,2.8v8.9h-5.1v-16.7h5.1v3.1c0.5-1,1.2-1.8,2.1-2.4
				C730.7,302.8,731.9,302.5,733,302.5z"/>
			<path id="Path_123" class="st2" d="M391.7,253.2c2.9,0.5,5.5,2.1,7.4,4.4c1.8,2.3,2.8,5.1,2.8,8c0.2,3.8-1.4,7.6-4.3,10.1
				s-7,3.7-12.4,3.7h-21.8v-50.8h21.3c5.1,0,9.1,1.1,11.8,3.4s4.1,5.4,4.1,9.5c0.1,2.8-0.8,5.6-2.5,7.8
				C396.5,251.2,394.2,252.6,391.7,253.2z M373.5,249.9h9.1c2.1,0.1,4.1-0.5,5.8-1.7c1.4-1.2,2.1-3,2-4.9c0.1-1.8-0.6-3.6-1.9-4.9
				c-1.3-1.2-3.3-1.7-6-1.7h-9V249.9z M383.1,271.1c2.2,0.1,4.4-0.5,6.2-1.8c1.5-1.3,2.3-3.2,2.2-5.1c0.1-2-0.7-3.9-2.2-5.2
				c-1.8-1.3-4-2-6.2-1.8h-9.6v14h9.6V271.1z M422.7,239c4.8,0,8.7,1.2,11.7,3.7s4.9,6,5.5,9.8h-9.5c-0.3-1.8-1.2-3.4-2.6-4.6
				c-1.5-1.2-3.4-1.8-5.3-1.7c-1.4-0.1-2.9,0.3-4,1.2c-1,0.8-1.5,2-1.4,3.3c0,1,0.4,2,1.2,2.7c0.8,0.7,1.8,1.3,2.9,1.6
				c1.2,0.4,2.8,0.8,5,1.4c2.5,0.5,5,1.2,7.4,2.1c1.9,0.7,3.6,2,4.9,3.5c1.4,1.9,2.2,4.2,2.1,6.5c0.1,3.2-1.4,6.3-4,8.3
				c-2.7,2.1-6.3,3.2-10.8,3.2c-5.2,0-9.3-1.2-12.5-3.5c-3.2-2.4-5.2-6-5.7-10h9.7c0.2,1.8,1.1,3.5,2.6,4.6c1.7,1.2,3.8,1.8,5.8,1.7
				c1.4,0.1,2.8-0.4,4-1.3c0.9-0.8,1.4-2,1.4-3.3c0-1.1-0.4-2.1-1.2-2.8c-0.9-0.8-1.9-1.3-3-1.7c-1.2-0.4-2.8-0.8-5-1.4
				c-2.5-0.5-4.9-1.2-7.2-2.1c-1.8-0.7-3.5-1.8-4.8-3.3c-1.4-1.8-2.1-4.1-2-6.3c-0.1-3.3,1.4-6.4,4-8.4
				C414.4,240.1,418.1,239,422.7,239z M465.8,239c4.6-0.2,9.2,1.3,12.9,4.2c3.5,2.9,5.8,6.9,6.4,11.4h-10.7c-0.3-2-1.4-3.7-3-5
				c-1.7-1.3-3.7-1.9-5.8-1.8c-2.6,0-5,1-6.7,3c-1.8,2-2.7,4.9-2.7,8.7c0,3.8,0.9,6.8,2.7,8.7c1.7,1.9,4.2,3,6.7,3
				c2.1,0.1,4.2-0.6,5.8-1.8c1.6-1.3,2.6-3,3-5h10.7c-0.7,4.5-3,8.5-6.4,11.4c-3.7,2.9-8.2,4.3-12.8,4.2c-3.6,0.1-7.2-0.8-10.4-2.5
				c-3-1.6-5.4-4.1-7.1-7.1c-1.7-3.4-2.6-7.1-2.5-10.9c-0.1-3.8,0.8-7.5,2.5-10.9c1.6-3,4.1-5.5,7.1-7.1
				C458.7,239.8,462.2,238.9,465.8,239z M527.3,265.5c0,2.5-0.7,5-1.9,7.2c-1.4,2.3-3.4,4.1-5.8,5.3c-2.9,1.4-6.1,2.1-9.3,2
				c-3.3,0.1-6.6-0.6-9.6-1.8c-2.7-1.1-5-3-6.8-5.3c-1.7-2.4-2.7-5.2-2.9-8.1h10.7c0.2,2,1.1,3.8,2.5,5.1c1.5,1.4,3.6,2.2,5.7,2.1
				c1.8,0.1,3.5-0.5,4.9-1.7c1.1-1.2,1.8-2.7,1.7-4.4c0.1-1.4-0.4-2.8-1.4-3.9s-2.1-1.9-3.5-2.5c-1.4-0.6-3.3-1.3-5.8-2.2
				c-2.7-0.9-5.3-1.9-7.8-3.1c-2.1-1.1-3.8-2.6-5.1-4.5c-1.5-2.3-2.2-5-2.1-7.7c-0.2-4,1.6-7.8,4.7-10.3s7.3-3.8,12.5-3.8
				c5.4,0,9.7,1.3,12.9,3.9c3.2,2.6,5.1,6.3,5.4,10.4h-10.9c-0.2-1.7-1-3.3-2.3-4.5c-1.4-1.2-3.2-1.9-5.1-1.8
				c-1.6-0.1-3.3,0.4-4.5,1.5s-1.8,2.7-1.7,4.3c0,1.4,0.4,2.7,1.3,3.7s2.1,1.8,3.4,2.4c1.8,0.8,3.7,1.5,5.6,2.1c2.7,0.9,5.4,2,8,3.2
				c2.1,1.1,3.9,2.6,5.2,4.5C526.6,259.9,527.4,262.6,527.3,265.5L527.3,265.5z M552.7,239c4.6-0.2,9.2,1.3,12.9,4.2
				c3.5,2.9,5.8,6.9,6.4,11.4h-10.7c-0.3-2-1.4-3.7-3-5c-1.7-1.3-3.7-1.9-5.8-1.8c-2.6,0-5,1-6.7,3c-1.8,2-2.7,4.9-2.7,8.7
				s0.9,6.8,2.7,8.7c1.7,1.9,4.2,3,6.7,3c2.1,0.1,4.2-0.6,5.8-1.8c1.6-1.3,2.6-3,3-5H572c-0.7,4.5-3,8.5-6.4,11.4
				c-3.7,2.9-8.2,4.3-12.9,4.2c-3.6,0.1-7.2-0.8-10.4-2.5c-3-1.6-5.4-4.1-7.1-7.1c-1.7-3.4-2.6-7.1-2.5-10.9
				c-0.1-3.8,0.8-7.5,2.5-10.9c1.6-3,4.1-5.5,7.1-7.1C545.5,239.8,549.1,238.9,552.7,239z M594.8,239c3.1-0.1,6.1,0.7,8.6,2.4
				c2.4,1.5,4.1,3.8,5.1,6.4v-8.3h10.1v39.9h-10.1V271c-1,2.6-2.8,4.9-5.1,6.4c-2.6,1.7-5.6,2.5-8.6,2.4c-3.2,0-6.3-0.8-9.1-2.4
				c-2.7-1.7-4.9-4.2-6.3-7.1c-1.6-3.4-2.4-7.1-2.3-10.9c-0.1-3.8,0.7-7.5,2.3-10.9c1.4-2.9,3.6-5.4,6.3-7.1
				C588.5,239.8,591.6,239,594.8,239z M598,247.9c-2.9-0.1-5.7,1-7.6,3.1c-1.9,2.1-2.9,4.9-2.9,8.5s1,6.4,2.9,8.5
				c2,2.1,4.8,3.2,7.6,3.1c2.9,0.1,5.6-1.1,7.6-3.1c2.1-2.3,3.1-5.3,3-8.4c0.2-3.1-0.9-6.1-3-8.5C603.6,248.9,600.8,247.8,598,247.9
				z M651.6,238.9c4.2-0.2,8.2,1.5,11,4.5c2.7,3,4.1,7.3,4.1,12.7v23.3h-10.1v-22c0-3.2-0.8-5.6-2.4-7.4c-1.7-1.8-4.2-2.8-6.7-2.6
				c-2.6-0.1-5.1,0.9-6.9,2.8c-1.7,1.9-2.6,4.6-2.6,8.1v21.1h-10.1v-39.9h10.2v8c1-2.6,2.8-4.8,5.2-6.3S648.6,238.9,651.6,238.9
				L651.6,238.9z"/>
		</g>
	</g>
</g>
<g>
	<path class="st5" d="M57,11.9c1.2,0,2.4,0.3,3.5,0.9L97,33.9c2.1,1.2,3.5,3.5,3.5,6v42.2c0,2.5-1.3,4.8-3.5,6l-36.6,21.1
		c-1,0.6-2.2,0.9-3.5,0.9c-1.2,0-2.4-0.3-3.5-0.9L17,88.1c-2.1-1.2-3.5-3.5-3.5-6V39.9c0-2.5,1.3-4.8,3.5-6l36.6-21.1
		C54.6,12.2,55.8,11.9,57,11.9 M57,1c-3.1,0-6.1,0.8-8.9,2.4L11.6,24.5c-5.5,3.2-8.9,9-8.9,15.4v42.2c0,6.4,3.4,12.2,8.9,15.4
		l36.6,21.1c2.8,1.6,5.8,2.4,8.9,2.4s6.1-0.8,8.9-2.4l36.6-21.1c5.5-3.2,8.9-9,8.9-15.4V39.9c0-6.4-3.4-12.2-8.9-15.4L65.9,3.4
		C63.2,1.8,60.1,1,57,1L57,1z"/>
	<g>
		<path class="st5" d="M259.9,42.7c-2.6-2.1-5.7-3.7-9.2-4.8c-3.5-1.1-7.4-1.7-11.4-1.7c-4,0-7.9,0.6-11.4,1.7
			c-3.5,1.1-6.6,2.7-9.2,4.8c-2.6,2.1-4.7,4.7-6.2,7.7c-1.5,3-2.3,6.6-2.3,10.7c0,4,0.8,7.6,2.3,10.7c1.5,3,3.6,5.6,6.2,7.7
			c2.6,2.1,5.7,3.6,9.2,4.6c3.5,1,7.4,1.5,11.4,1.5c4,0,7.9-0.5,11.4-1.5c3.5-1,6.6-2.5,9.2-4.6c2.6-2.1,4.7-4.7,6.2-7.7
			c1.5-3,2.3-6.6,2.3-10.7c0-4-0.8-7.6-2.3-10.7C264.6,47.3,262.5,44.7,259.9,42.7z M255.9,68.1c-1,2.1-2.4,3.8-4.1,5.2
			c-1.7,1.4-3.6,2.4-5.8,3.2c-2.1,0.7-4.4,1.1-6.8,1.1c-2.4,0-4.7-0.4-6.8-1.1c-2.2-0.7-4.1-1.8-5.8-3.2c-1.7-1.4-3.1-3.1-4.1-5.2
			c-1-2.1-1.5-4.4-1.5-7c0-2.6,0.5-5,1.5-7c1-2.1,2.4-3.8,4.1-5.2c1.7-1.4,3.6-2.4,5.8-3.2c2.1-0.7,4.4-1.1,6.8-1.1
			c2.4,0,4.7,0.4,6.8,1.1c2.2,0.7,4.1,1.8,5.8,3.2c1.7,1.4,3.1,3.1,4.1,5.2c1,2.1,1.5,4.4,1.5,7C257.5,63.6,257,66,255.9,68.1z"/>
		<path class="st5" d="M320.4,36.8c-19.4,0-32.3,0-32.3,0v0h-0.2v0.2V85h10.9V65.3c3.4,0,7.5,0,12.1,0l12.7,17.4
			c1.1,1.5,2.8,2.3,4.6,2.3h9l-14.5-19.8c17-1.1,15.7-14.2,15.7-14.2S339.9,36.8,320.4,36.8z M328.5,51c0,0,0.6,5.8-7.3,5.8
			c-6.4,0-18,0-22.3,0V45.2c4.3,0,15.9,0,22.3,0C329.1,45.2,328.5,51,328.5,51"/>
		<path class="st5" d="M399.4,76.5h-29.2V65.2h27v-8.5h-27V45.2h29.2c1.6,0,3-1,3.5-2.4l2.4-6.1h-35.1h-10.9v8.5v11.4v8.5v11.4v8.5
			h10.9h35.1L403,79C402.4,77.5,401,76.5,399.4,76.5z"/>
		<path class="st5" d="M173.2,76.1c-2.1,0-4.3-0.3-6.6-0.7c-2.4-0.5-4.6-1.4-6.6-2.5c-2.1-1.2-3.8-2.9-5.1-4.9c-1.3-2-1.9-4.3-2-7
			c0.1-2.7,0.8-5.1,2-7c1.3-2,3-3.7,5.1-4.9c2-1.2,4.2-2,6.6-2.5c2.3-0.5,4.5-0.7,6.6-0.7c6.8,0,11.5,1.3,14.3,2.4
			c1.8,0.7,3.9-0.1,4.8-1.8l3.2-6l-2.4-0.8c-1-0.3-2.3-0.7-4-1.2c-1.9-0.5-4.3-1-7.1-1.4c-2.8-0.4-6.1-0.6-10-0.6
			c-3.8,0-7.6,0.6-11.3,1.6c-3.7,1.1-7,2.7-9.9,4.8c-2.9,2.1-5.2,4.7-7,7.9c-1.7,2.9-2.5,6.4-2.6,10.4c0.1,3.9,0.9,7.4,2.6,10.4
			c1.8,3.1,4.1,5.8,7,7.9c2.9,2.1,6.3,3.7,9.9,4.8c3.7,1.1,7.5,1.6,11.3,1.6c3.9,0,7.2-0.2,10-0.6c2.8-0.4,5.2-0.9,7.1-1.4
			c1.7-0.5,3.1-0.9,4-1.2l2.4-0.8l-3.2-6c-0.9-1.7-3-2.5-4.8-1.8C184.6,74.8,180,76.1,173.2,76.1z"/>
	</g>
</g>
</svg>
