<?xml version="1.0" encoding="utf-8"?>
<!-- Generator: Adobe Illustrator 25.0.1, SVG Export Plug-In . SVG Version: 6.00 Build 0)  -->
<svg version="1.1" id="layer_1" xmlns="http://www.w3.org/2000/svg" xmlns:xlink="http://www.w3.org/1999/xlink" x="0px" y="0px"
	 viewBox="0 0 121.4 121.3" style="enable-background:new 0 0 121.4 121.3;" xml:space="preserve">
<style type="text/css">
	.st0{display:none;}
	.st1{display:inline;}
	.st2{fill:#FD9500;}
	.st3{clip-path:url(#SVGID_2_);}
	.st4{clip-path:url(#SVGID_4_);}
</style>
<g id="图层_1_1_" class="st0">
	<g class="st1">
		<g>
			<g>
				<g>
					<path class="st2" d="M64.9,13.2c-2.6-1.5-5.7-1.5-8.3,0L19,34.9c-0.6,0.3-0.6,1.1,0,1.4l41.7,24.1l41.7-24.1
						c0.6-0.3,0.6-1.1,0-1.4L64.9,13.2z"/>
				</g>
				<g>
					<g>
						<polygon class="st2" points="62.1,62.8 62.1,84.6 103.6,60.6 103.6,38.8 						"/>
					</g>
					<g>
						<path class="st2" d="M59.3,62.8l-41.5-24v21.8l41.5,24V62.8z M26.2,57.8l-3.5-2v-5.5l3.5,2V57.8z M33.1,61.8l-3.5-2v-5.5
							l3.5,2V61.8z M36.6,63.8v-5.5l3.5,2v5.5L36.6,63.8z"/>
					</g>
				</g>
				<g>
					<g>
						<path class="st2" d="M59.3,87.8l-41.5-24v16.6c0,3,1.6,5.7,4.2,7.2l37.4,21.6V87.8H59.3z M26.2,82.7l-3.5-2v-5.5l3.5,2V82.7z
							 M33.1,86.7l-3.5-2v-5.5l3.5,2V86.7z M36.6,88.7v-5.5l3.5,2v5.5L36.6,88.7z"/>
					</g>
					<g>
						<path class="st2" d="M62.1,87.8v21.4l37.4-21.6c2.6-1.5,4.2-4.2,4.2-7.2V63.8L62.1,87.8z"/>
					</g>
				</g>
			</g>
		</g>
		<g>
			<path class="st2" d="M60.7,6c2.2,0,4.4,0.6,6.3,1.7L104,29c3.9,2.3,6.3,6.5,6.3,11v41.4c0,4.5-2.4,8.7-6.3,11l-37,21.2
				c-1.9,1.1-4.1,1.7-6.3,1.7s-4.4-0.6-6.3-1.7l-37-21.3c-3.9-2.3-6.3-6.5-6.3-11V40c0-4.5,2.4-8.7,6.3-11l37-21.3
				C56.3,6.6,58.5,6,60.7,6 M60.7,0.7c-3.1,0-6.2,0.8-9,2.4L14.8,24.4c-5.6,3.2-9,9.2-9,15.6v41.4c0,6.4,3.4,12.4,9,15.6l36.9,21.3
				c2.8,1.6,5.9,2.4,9,2.4s6.2-0.8,9-2.4L106.6,97c5.6-3.2,9-9.2,9-15.6V40c0-6.4-3.4-12.4-9-15.6L69.7,3.1
				C66.9,1.5,63.8,0.7,60.7,0.7L60.7,0.7z"/>
		</g>
	</g>
</g>
<g id="图层_1_x5F_复制">
	<g>
		<g>
			<path class="st2" d="M60.7,6c2.2,0,4.4,0.6,6.3,1.7L104,29c3.9,2.3,6.3,6.5,6.3,11v41.4c0,4.5-2.4,8.7-6.3,11l-37,21.2
				c-1.9,1.1-4.1,1.7-6.3,1.7s-4.4-0.6-6.3-1.7l-37-21.3c-3.9-2.3-6.3-6.5-6.3-11V40c0-4.5,2.4-8.7,6.3-11l37-21.3
				C56.3,6.6,58.5,6,60.7,6 M60.7,0.7c-3.1,0-6.2,0.8-9,2.4L14.8,24.4c-5.6,3.2-9,9.2-9,15.6v41.4c0,6.4,3.4,12.4,9,15.6l36.9,21.3
				c2.8,1.6,5.9,2.4,9,2.4s6.2-0.8,9-2.4L106.6,97c5.6-3.2,9-9.2,9-15.6V40c0-6.4-3.4-12.4-9-15.6L69.7,3.1
				C66.9,1.5,63.8,0.7,60.7,0.7L60.7,0.7z"/>
		</g>
	</g>
	<path class="st2" d="M100.7,44.1L100.7,44.1c0-2-1.6-3.6-3.6-3.6h-6c-1-5-5.1-9-10.1-9.8v-7c0-2-1.6-3.6-3.6-3.6l0,0
		c-2,0-3.6,1.6-3.6,3.6v6.8h-10v-6.8c0-2-1.6-3.6-3.6-3.6l0,0c-2,0-3.6,1.6-3.6,3.6v6.8h-9.3v-6.8c0-2-1.6-3.6-3.6-3.6l0,0
		c-2,0-3.6,1.6-3.6,3.6v6.9c-5.2,0.8-9.5,4.8-10.5,9.9H24c-2,0-3.6,1.6-3.6,3.6l0,0c0,2,1.6,3.6,3.6,3.6h5.4V57H24
		c-2,0-3.6,1.6-3.6,3.6l0,0c0,2,1.6,3.6,3.6,3.6h5.4v10H24c-2,0-3.6,1.6-3.6,3.6l0,0c0,2,1.6,3.6,3.6,3.6h5.5
		c0.6,5.7,5.1,10.2,10.7,11v5.9c0,2,1.6,3.6,3.6,3.6l0,0c2,0,3.6-1.6,3.6-3.6v-5.7h9.3v5.7c0,2,1.6,3.6,3.6,3.6l0,0
		c2,0,3.6-1.6,3.6-3.6v-5.7h10v5.7c0,2,1.6,3.6,3.6,3.6l0,0c2,0,3.6-1.6,3.6-3.6v-5.9c5.4-0.9,9.7-5.4,10.3-10.9h5.8
		c2,0,3.6-1.6,3.6-3.6l0,0c0-2-1.6-3.6-3.6-3.6h-5.7v-10h5.7c2,0,3.6-1.6,3.6-3.6l0,0c0-2-1.6-3.6-3.6-3.6h-5.7v-9.3h5.7
		C99.1,47.7,100.7,46,100.7,44.1z M84.3,79.9c0,3-2.4,5.4-5.4,5.4H42c-3,0-5.4-2.4-5.4-5.4V43c0-3,2.4-5.4,5.4-5.4h36.9
		c3,0,5.4,2.4,5.4,5.4V79.9z"/>
	<path class="st2" d="M80.3,76.8c0,2.5-2,4.5-4.5,4.5H45c-2.5,0-4.5-2-4.5-4.5V46.1c0-2.5,2-4.5,4.5-4.5h30.8c2.5,0,4.5,2,4.5,4.5
		V76.8z"/>
</g>
<g id="图层_1_x5F_复制_2" class="st0">
	<g class="st1">
		<g>
			<path class="st2" d="M60.7,6c2.2,0,4.4,0.6,6.3,1.7L104,29c3.9,2.3,6.3,6.5,6.3,11v41.4c0,4.5-2.4,8.7-6.3,11l-37,21.2
				c-1.9,1.1-4.1,1.7-6.3,1.7s-4.4-0.6-6.3-1.7l-37-21.3c-3.9-2.3-6.3-6.5-6.3-11V40c0-4.5,2.4-8.7,6.3-11l37-21.3
				C56.3,6.6,58.5,6,60.7,6 M60.7,0.7c-3.1,0-6.2,0.8-9,2.4L14.8,24.4c-5.6,3.2-9,9.2-9,15.6v41.4c0,6.4,3.4,12.4,9,15.6l36.9,21.3
				c2.8,1.6,5.9,2.4,9,2.4s6.2-0.8,9-2.4L106.6,97c5.6-3.2,9-9.2,9-15.6V40c0-6.4-3.4-12.4-9-15.6L69.7,3.1
				C66.9,1.5,63.8,0.7,60.7,0.7L60.7,0.7z"/>
		</g>
	</g>
	<g class="st1">
		<g>
			<defs>
				<polygon id="SVGID_1_" points="154.5,67.1 -21.6,67.1 69,185.9 162.4,62.1 				"/>
			</defs>
			<clipPath id="SVGID_2_">
				<use xlink:href="#SVGID_1_"  style="overflow:visible;"/>
			</clipPath>
			<g class="st3">
				<path class="st2" d="M100.7,44.1L100.7,44.1c0-2-1.6-3.6-3.6-3.6h-6c-1-5-5.1-9-10.1-9.8v-7c0-2-1.6-3.6-3.6-3.6l0,0
					c-2,0-3.6,1.6-3.6,3.6v6.8h-10v-6.8c0-2-1.6-3.6-3.6-3.6l0,0c-2,0-3.6,1.6-3.6,3.6v6.8h-9.3v-6.8c0-2-1.6-3.6-3.6-3.6l0,0
					c-2,0-3.6,1.6-3.6,3.6v6.9c-5.2,0.8-9.5,4.8-10.5,9.9H24c-2,0-3.6,1.6-3.6,3.6l0,0c0,2,1.6,3.6,3.6,3.6h5.4V57H24
					c-2,0-3.6,1.6-3.6,3.6l0,0c0,2,1.6,3.6,3.6,3.6h5.4v10H24c-2,0-3.6,1.6-3.6,3.6l0,0c0,2,1.6,3.6,3.6,3.6h5.5
					c0.6,5.7,5.1,10.2,10.7,11v5.9c0,2,1.6,3.6,3.6,3.6l0,0c2,0,3.6-1.6,3.6-3.6v-5.7h9.3v5.7c0,2,1.6,3.6,3.6,3.6l0,0
					c2,0,3.6-1.6,3.6-3.6v-5.7h10v5.7c0,2,1.6,3.6,3.6,3.6l0,0c2,0,3.6-1.6,3.6-3.6v-5.9c5.4-0.9,9.7-5.4,10.3-10.9h5.8
					c2,0,3.6-1.6,3.6-3.6l0,0c0-2-1.6-3.6-3.6-3.6h-5.7v-10h5.7c2,0,3.6-1.6,3.6-3.6l0,0c0-2-1.6-3.6-3.6-3.6h-5.7v-9.3h5.7
					C99.1,47.7,100.7,46,100.7,44.1z M84.3,79.9c0,3-2.4,5.4-5.4,5.4H42c-3,0-5.4-2.4-5.4-5.4V43c0-3,2.4-5.4,5.4-5.4h36.9
					c3,0,5.4,2.4,5.4,5.4V79.9z"/>
				<path class="st2" d="M80.3,76.8c0,2.5-2,4.5-4.5,4.5H45c-2.5,0-4.5-2-4.5-4.5V46.1c0-2.5,2-4.5,4.5-4.5h30.8
					c2.5,0,4.5,2,4.5,4.5V76.8z"/>
			</g>
		</g>
	</g>
	<g class="st1">
		<g>
			<defs>
				<polygon id="SVGID_3_" points="130.2,63.9 -45.8,63.9 32.7,-66.2 137.3,66 				"/>
			</defs>
			<clipPath id="SVGID_4_">
				<use xlink:href="#SVGID_3_"  style="overflow:visible;"/>
			</clipPath>
			<g class="st4">
				<path class="st2" d="M42.6,35.1c0,7.4,4.5,13.8,11,16.6c-14.4,2.6-26.2,12.9-30.9,26.4l33.7,19.4c2.6,1.5,5.7,1.5,8.3,0l34-19.6
					c-4.8-13.5-16.6-23.7-31-26.2c6.4-2.8,10.9-9.1,10.9-16.6c0-9.7-7.6-17.5-17.1-18c-0.3,0-0.6,0-0.9,0c-0.3,0-0.6,0-0.9,0
					C50.2,17.6,42.6,25.4,42.6,35.1z"/>
			</g>
		</g>
	</g>
</g>
</svg>
